<?xml version="1.0" encoding="UTF-8" standalone="no"?>
<svg
   xmlns:dc="http://purl.org/dc/elements/1.1/"
   xmlns:cc="http://creativecommons.org/ns#"
   xmlns:rdf="http://www.w3.org/1999/02/22-rdf-syntax-ns#"
   xmlns:svg="http://www.w3.org/2000/svg"
   xmlns="http://www.w3.org/2000/svg"
   xmlns:sodipodi="http://sodipodi.sourceforge.net/DTD/sodipodi-0.dtd"
   xmlns:inkscape="http://www.inkscape.org/namespaces/inkscape"
   width="119.54619mm"
   height="13.43176mm"
   viewBox="0 0 119.54619 13.43176"
   version="1.1"
   id="svg8"
   inkscape:version="1.0.1 (3bc2e813f5, 2020-09-07)"
   sodipodi:docname="drawing-6.svg">
  <defs
     id="defs2" />
  <sodipodi:namedview
     id="base"
     pagecolor="#ffffff"
     bordercolor="#666666"
     borderopacity="1.0"
     inkscape:pageopacity="0.0"
     inkscape:pageshadow="2"
     inkscape:zoom="0.35"
     inkscape:cx="286.38619"
     inkscape:cy="-30.78589"
     inkscape:document-units="mm"
     inkscape:current-layer="text12"
     inkscape:document-rotation="0"
     showgrid="false"
     fit-margin-top="0"
     fit-margin-left="0"
     fit-margin-right="0"
     fit-margin-bottom="0"
     inkscape:window-width="1280"
     inkscape:window-height="910"
     inkscape:window-x="0"
     inkscape:window-y="27"
     inkscape:window-maximized="1" />
  <metadata
     id="metadata5">
    <rdf:RDF>
      <cc:Work
         rdf:about="">
        <dc:format>image/svg+xml</dc:format>
        <dc:type
           rdf:resource="http://purl.org/dc/dcmitype/StillImage" />
        <dc:title></dc:title>
      </cc:Work>
    </rdf:RDF>
  </metadata>
  <g
     inkscape:label="Layer 1"
     inkscape:groupmode="layer"
     id="layer1"
     transform="translate(-51.98294,-156.3121)">
    <g
       aria-label="envoamr"
       id="text12"
       style="font-size:25.4px;line-height:1.25;font-family:sans-serif;word-spacing:0px;stroke-width:0.264583"
       transform="translate(-159.93632,30.07997)">
      <path
         d="m 226.61604,130.67219 q 0,0.66973 -0.23565,1.45108 -0.23564,0.76894 -0.76894,1.43867 -0.5209,0.65732 -1.37666,1.10381 -0.84336,0.44648 -2.05879,0.44648 h -5.8167 v -3.06338 h 5.8167 q 0.65732,0 1.01699,-0.39687 0.35967,-0.40928 0.35967,-1.00459 0,-0.63252 -0.40928,-0.99219 -0.39687,-0.35967 -0.96738,-0.35967 h -5.8167 q -0.65732,0 -1.01699,0.40928 -0.35967,0.39688 -0.35967,0.99219 v 4.50205 q 0,0.64492 0.39688,1.00459 0.40927,0.35967 1.00459,0.35967 h 5.79189 v 3.07578 h -5.8167 q -0.66973,0 -1.45107,-0.23565 -0.76895,-0.23564 -1.43868,-0.75654 -0.65732,-0.5333 -1.1038,-1.37666 -0.44649,-0.85576 -0.44649,-2.07119 v -4.52686 q 0,-0.66972 0.23565,-1.43867 0.23564,-0.78135 0.75654,-1.43867 0.5333,-0.66973 1.37666,-1.11621 0.85576,-0.44649 2.07119,-0.44649 h 5.8167 q 0.66973,0 1.43867,0.23565 0.78135,0.23564 1.43867,0.76894 0.66973,0.5209 1.11621,1.37666 0.44649,0.84336 0.44649,2.05879 z"
         style="font-style:normal;font-variant:normal;font-weight:normal;font-stretch:normal;font-size:25.4px;font-family:Audiowide;-inkscape-font-specification:Audiowide;fill:#44476a;fill-opacity:1;stroke-width:0.264583"
         id="path14" />
      <path
         d="m 243.64446,139.63909 h -3.22461 v -7.44141 q 0,-0.63252 -0.22325,-1.12861 -0.21084,-0.5085 -0.58291,-0.86817 -0.37207,-0.35966 -0.88056,-0.5457 -0.4961,-0.19844 -1.07901,-0.19844 h -5.64306 v 10.18233 h -3.22461 v -11.80703 q 0,-0.33487 0.12402,-0.62012 0.12403,-0.29766 0.34727,-0.5085 0.22324,-0.22324 0.5209,-0.34726 0.29765,-0.12403 0.63252,-0.12403 h 7.26777 q 0.60771,0 1.27744,0.13643 0.68213,0.13643 1.33945,0.44648 0.66973,0.29766 1.26504,0.76895 0.60772,0.45889 1.0666,1.12861 0.47129,0.65733 0.74414,1.52549 0.27286,0.86817 0.27286,1.95957 z"
         style="font-style:normal;font-variant:normal;font-weight:normal;font-stretch:normal;font-size:25.4px;font-family:Audiowide;-inkscape-font-specification:Audiowide;fill:#44476a;fill-opacity:1;stroke-width:0.264583"
         id="path16" />
      <path
         d="m 262.47121,126.23215 q -0.5457,1.69913 -1.27744,3.34864 -0.73174,1.64951 -1.68672,3.15019 -0.94258,1.48828 -2.1208,2.76573 -1.16582,1.26503 -2.59209,2.19521 -1.41387,0.91777 -3.08818,1.45107 -1.66192,0.5209 -3.60908,0.5209 -0.33487,0 -0.63252,-0.12402 -0.29766,-0.12402 -0.5209,-0.33486 -0.22325,-0.22325 -0.34727,-0.5085 -0.12402,-0.29766 -0.12402,-0.63252 v -11.83184 h 3.22461 v 10.08311 q 1.17822,0 2.25722,-0.5085 1.09141,-0.50849 2.05879,-1.33945 0.96739,-0.84336 1.78594,-1.90996 0.83096,-1.0666 1.47588,-2.18281 0.64492,-1.12862 1.09141,-2.20762 0.45888,-1.079 0.68212,-1.93477 z"
         style="font-style:normal;font-variant:normal;font-weight:normal;font-stretch:normal;font-size:25.4px;font-family:Audiowide;-inkscape-font-specification:Audiowide;fill:#44476a;fill-opacity:1;stroke-width:0.264583"
         id="path18" />
      <path
         d="m 278.20979,135.11223 q 0,0.83096 -0.21084,1.50069 -0.21084,0.65732 -0.55811,1.16582 -0.34726,0.49609 -0.80615,0.85576 -0.45889,0.34726 -0.96738,0.57051 -0.4961,0.22324 -1.017,0.33486 -0.50849,0.0992 -0.96738,0.0992 h -5.8167 q -0.66972,0 -1.46347,-0.23565 -0.79375,-0.23564 -1.47588,-0.76894 -0.66973,-0.5457 -1.12862,-1.40147 -0.44648,-0.86816 -0.44648,-2.1208 v -4.36562 q 0,-1.24024 0.44648,-2.096 0.45889,-0.86816 1.12862,-1.40146 0.68213,-0.54571 1.47588,-0.78135 0.79375,-0.23565 1.46347,-0.23565 h 5.8167 q 1.24024,0 2.1084,0.44649 0.86816,0.44648 1.40146,1.12861 0.53331,0.66973 0.76895,1.46348 0.24805,0.79375 0.24805,1.47588 z m -3.22461,-4.34082 q 0,-0.66972 -0.33487,-0.99218 -0.33486,-0.32247 -0.96738,-0.32247 h -5.79189 q -0.64492,0 -0.97979,0.33487 -0.33486,0.32246 -0.33486,0.95498 v 4.36562 q 0,0.63252 0.33486,0.96739 0.33487,0.33486 0.97979,0.33486 h 5.79189 q 0.65733,0 0.97979,-0.33486 0.32246,-0.33487 0.32246,-0.96739 z"
         style="font-style:normal;font-variant:normal;font-weight:normal;font-stretch:normal;font-size:25.4px;font-family:Audiowide;-inkscape-font-specification:Audiowide;fill:#44476a;fill-opacity:1;stroke-width:0.264583"
         id="path20" />
      <path
         d="m 294.79172,135.19905 q 0,0.66973 -0.23565,1.45107 -0.23564,0.76895 -0.76894,1.43868 -0.5209,0.65732 -1.37666,1.1038 -0.84336,0.44649 -2.05879,0.44649 h -5.8167 q -0.66973,0 -1.45107,-0.23565 -0.76895,-0.23564 -1.43868,-0.75654 -0.65732,-0.5333 -1.1038,-1.37666 -0.44649,-0.85576 -0.44649,-2.07119 0,-0.66973 0.23565,-1.45107 0.23564,-0.78135 0.75654,-1.43868 0.5333,-0.66972 1.37666,-1.11621 0.85576,-0.44648 2.07119,-0.44648 h 5.8167 v 3.07578 h -5.8167 q -0.65732,0 -1.01699,0.40928 -0.35967,0.39687 -0.35967,0.99218 0,0.63252 0.40928,0.99219 0.42168,0.34727 0.99219,0.34727 h 5.79189 q 0.65732,0 1.01699,-0.39688 0.35967,-0.39687 0.35967,-0.99219 v -4.50205 q 0,-0.63252 -0.39687,-1.00459 -0.38448,-0.37207 -0.97979,-0.37207 h -7.08174 v -3.06338 h 7.08174 q 0.66973,0 1.43867,0.23565 0.78135,0.23564 1.43867,0.76894 0.66973,0.5209 1.11621,1.37666 0.44649,0.84336 0.44649,2.05879 z"
         style="font-style:normal;font-variant:normal;font-weight:normal;font-stretch:normal;font-size:25.4px;font-family:Audiowide;-inkscape-font-specification:Audiowide;fill:#44476a;fill-opacity:1;stroke-width:0.264583"
         id="path22" />
      <path
         d="m 309.5133,139.63909 h -3.22461 v -8.89248 q 0,-0.63252 -0.33486,-0.95498 -0.33486,-0.33487 -0.99219,-0.33487 h -4.19199 v 10.18233 h -3.22461 v -11.80703 q 0,-0.33487 0.12402,-0.62012 0.12403,-0.29766 0.34727,-0.5085 0.22324,-0.22324 0.5209,-0.34726 0.29765,-0.12403 0.63252,-0.12403 h 5.8167 q 0.66972,0 1.43867,0.23565 0.76894,0.23564 1.46348,0.75654 v -0.99219 h 4.36562 q 0.45889,0 0.96738,0.11163 0.5085,0.0992 1.00459,0.32246 0.5085,0.22324 0.96739,0.58291 0.45888,0.34726 0.80615,0.85576 0.34726,0.49609 0.5581,1.15342 0.21084,0.65732 0.21084,1.48828 v 8.89248 h -3.22461 v -8.89248 q 0,-0.63252 -0.32246,-0.95498 -0.31006,-0.33487 -0.96738,-0.33487 h -2.90215 q 0.16123,0.59532 0.16123,1.28985 z"
         style="font-style:normal;font-variant:normal;font-weight:normal;font-stretch:normal;font-size:25.4px;font-family:Audiowide;-inkscape-font-specification:Audiowide;fill:#44476a;fill-opacity:1;stroke-width:0.264583"
         id="path24" />
      <path
         d="m 331.46545,129.45676 h -7.25537 q -0.65733,0 -0.99219,0.33487 -0.33486,0.32246 -0.33486,0.95498 v 8.89248 h -3.22461 v -8.89248 q 0,-0.83096 0.21084,-1.48828 0.21084,-0.65733 0.5581,-1.15342 0.35967,-0.5085 0.81856,-0.85576 0.45888,-0.35967 0.95498,-0.58291 0.50849,-0.22325 1.01699,-0.32246 0.5209,-0.11163 0.96738,-0.11163 h 7.28018 z"
         style="font-style:normal;font-variant:normal;font-weight:normal;font-stretch:normal;font-size:25.4px;font-family:Audiowide;-inkscape-font-specification:Audiowide;fill:#44476a;fill-opacity:1;stroke-width:0.264583"
         id="path26" />
    </g>
  </g>
</svg>
